<svg width="35" height="30" viewBox="0 0 35 30" fill="none" xmlns="http://www.w3.org/2000/svg">
<path d="M27.0541 20.0627H5.47084L3.39545 5.74976H31.689C31.9319 5.74976 32.1283 6.02453 32.1283 6.36294L27.4934 19.4488C27.4934 19.7879 27.2964 20.062 27.0541 20.062V20.0627Z" fill="white"/>
<path d="M26.8169 20.5242H11.3008L4.17073 26.2701C3.04115 27.0965 1.66635 25.8016 2.04078 24.2627L4.3097 16.383L2.51512 5.28906H31.2554C32.2317 5.28906 33.0236 6.25254 33.0236 7.44184V7.82499L28.5368 18.8755C28.3502 19.8201 27.6502 20.5249 26.8175 20.5249L26.8169 20.5242ZM7.25109 17.2436H26.1927L29.7147 8.56892H5.80911L7.25109 17.2436Z" fill="#42C1F0"/>
<path d="M11.4076 15.2516C12.4844 15.2516 13.3573 14.1888 13.3573 12.8779C13.3573 11.5669 12.4844 10.5042 11.4076 10.5042C10.3309 10.5042 9.45801 11.5669 9.45801 12.8779C9.45801 14.1888 10.3309 15.2516 11.4076 15.2516Z" fill="#42C1F0"/>
<path d="M16.8804 15.2516C17.9571 15.2516 18.83 14.1888 18.83 12.8779C18.83 11.5669 17.9571 10.5042 16.8804 10.5042C15.8036 10.5042 14.9307 11.5669 14.9307 12.8779C14.9307 14.1888 15.8036 15.2516 16.8804 15.2516Z" fill="#42C1F0"/>
<path d="M22.3537 15.2516C23.4304 15.2516 24.3033 14.1888 24.3033 12.8779C24.3033 11.5669 23.4304 10.5042 22.3537 10.5042C21.2769 10.5042 20.4041 11.5669 20.4041 12.8779C20.4041 14.1888 21.2769 15.2516 22.3537 15.2516Z" fill="#42C1F0"/>
</svg>
