<svg width="35" height="31" viewBox="0 0 35 31" fill="none" xmlns="http://www.w3.org/2000/svg">
<g clip-path="url(#clip0_2001_42)">
<path d="M18.7968 1.15152C18.0067 0.559031 16.9018 0.559031 16.1124 1.15152L0.778809 12.6583C0.244859 13.0592 -0.0679932 13.6757 -0.0679932 14.3298C-0.0679932 16.0894 2.02512 17.0804 3.46321 16.0013L16.1124 6.51165C16.9024 5.91916 18.0067 5.91916 18.7968 6.51165L31.4688 16.0013C32.9069 17.0804 35 16.0894 35 14.3298C35 13.6763 34.6878 13.0592 34.1532 12.6583L18.8197 1.15152C18.0296 0.559031 16.9247 0.559031 16.1353 1.15152" fill="#42C1F0"/>
<path d="M6.47479 31C5.67902 31 5.03319 30.3462 5.03073 29.5383L5.00001 18.1819C4.99878 17.724 5.20832 17.2917 5.56657 17.0134L16.781 8.30168C17.3046 7.89491 18.0334 7.8999 18.5514 8.31415L26.3813 14.8249C26.7635 15.1306 27.1531 15.9229 27.1113 16.4151C27.0695 16.9074 26.5404 17.4077 26.1115 17.6417C24.7762 18.3722 23.149 19.7684 22.5075 20.4984C19.0418 24.4387 19.1302 24.6197 18.7794 25.1843C18.4783 25.6696 17.3175 27.0259 16.7515 27.0284H16.7466C16.1801 27.0284 15.3542 26.7627 15.1201 26.238C15.1115 26.2186 13.3737 23.5135 11.5431 22.5709C10.8321 22.2047 10.6091 21.1977 10.9698 20.4753C11.3305 19.7535 12.1994 19.4646 12.911 19.8308C14.1664 20.4772 15.6743 21.7436 16.373 22.657C16.3743 22.6588 16.3773 22.6588 16.3786 22.657C17.1239 21.6226 17.8257 20.7379 19.5211 18.8108C19.8603 18.4252 20.8496 17.389 22.1732 16.3303C22.1751 16.329 22.1751 16.3259 22.1732 16.3247L17.5252 12.6956C17.5252 12.6956 17.5221 12.6944 17.5209 12.6956L9.12017 18.8994C9.12017 18.8994 9.11895 18.9013 9.11895 18.9019L9.08208 27.1881C9.08208 27.1881 9.08392 27.2543 9.08576 27.2543L25.8178 27.2181C25.8178 27.2181 25.8215 27.1538 25.8215 27.152V19.3367C25.8215 18.54 27.169 17.8594 27.9531 17.8332C28.7735 17.8051 30 18.472 30 19.2987V29.4921C30 30.3006 29.3548 30.957 28.5584 30.9582L6.47786 30.9994H6.4754L6.47479 31Z" fill="#42C1F0"/>
</g>
<defs>
<clipPath id="clip0_2001_42">
<rect width="35" height="31" fill="white"/>
</clipPath>
</defs>
</svg>
