<svg width="35" height="30" viewBox="0 0 35 30" fill="none" xmlns="http://www.w3.org/2000/svg">
<g clip-path="url(#clip0_2001_73)">
<path d="M5.41504 16.3501C5.41504 16.6815 6.84569 16.7658 7.575 16.7868C7.80745 16.7933 7.99197 16.987 7.99197 17.2227V24.5801C7.99197 24.8215 8.18448 25.0168 8.42252 25.0168H26.5673C26.8053 25.0168 26.9978 24.8215 26.9978 24.5801V17.2309C26.9978 16.9918 27.1863 16.7974 27.4212 16.7941C28.1385 16.7844 29.5148 16.7179 29.5148 16.3493C29.5148 15.8842 29.5148 27.9565 29.5148 29.5462C29.5148 29.6572 29.4733 29.7634 29.3982 29.8444L29.379 29.8647C29.2976 29.953 29.1841 30.0024 29.0651 30.0024H5.88074C5.73776 30.0024 5.60436 29.9303 5.52448 29.8104C5.47655 29.7383 5.45099 29.654 5.45019 29.5673C5.44699 28.1542 5.41584 15.9295 5.41584 16.3485L5.41504 16.3501Z" fill="#42C1F0"/>
<path d="M9.72216 0.918335L3.39486 12.5093C3.39486 12.5093 3.05777 15.0828 6.5669 15.8201C8.48642 16.0065 9.45856 14.5715 9.45856 14.5715C9.45856 14.5715 10.3939 15.829 12.073 15.8517C13.7521 15.8744 14.8041 14.5715 14.8041 14.5715C14.8041 14.5715 15.6588 15.7845 17.3803 15.8517C19.1017 15.919 20.1497 14.5715 20.1497 14.5715C20.1497 14.5715 21.3631 15.9449 22.8488 15.8517C24.3346 15.7585 25.4074 14.5715 25.4074 14.5715C25.4074 14.5715 26.3316 15.8963 28.4221 15.8517C31.5414 15.3493 31.6117 12.5093 31.6117 12.5093L24.9169 0.918335H9.72136" fill="#42C1F0"/>
<path d="M23.4567 25.8431H11.4723C10.9098 25.8431 10.4539 26.3057 10.4539 26.8762V28.0098C10.4539 28.5804 10.9098 29.0429 11.4723 29.0429H23.4567C24.0192 29.0429 24.4752 28.5804 24.4752 28.0098V26.8762C24.4752 26.3057 24.0192 25.8431 23.4567 25.8431Z" fill="white"/>
<path d="M20.605 1.30078C19.7063 1.30078 19.001 2.0827 19.0809 2.99021L19.9803 13.2564C20.0091 13.587 20.1409 13.8998 20.3582 14.1469C20.7456 14.5893 21.4581 15.2205 22.451 15.3607C22.5724 15.3777 22.6954 15.3801 22.8169 15.3672C23.6444 15.278 24.2555 14.881 24.6653 14.4969C25.0863 14.1015 25.2444 13.4946 25.0847 12.9347L22.0756 2.42058C21.8855 1.75697 21.2864 1.30078 20.6058 1.30078H20.605Z" fill="white"/>
<path d="M14.2905 1.30078C15.1892 1.30078 15.8945 2.0827 15.8146 2.99021L14.9152 13.2564C14.8864 13.587 14.7546 13.8998 14.5373 14.1469C14.1499 14.5893 13.4374 15.2205 12.4445 15.3607C12.3231 15.3777 12.2001 15.3801 12.0786 15.3672C11.2511 15.278 10.64 14.881 10.2302 14.4969C9.82043 14.1129 9.65108 13.4946 9.81084 12.9347L12.8199 2.42058C13.01 1.75697 13.6091 1.30078 14.2897 1.30078H14.2905Z" fill="white"/>
</g>
<defs>
<clipPath id="clip0_2001_73">
<rect width="34" height="30" fill="white" transform="translate(0.5)"/>
</clipPath>
</defs>
</svg>
