<svg width="37" height="31" viewBox="0 0 37 31" fill="none" xmlns="http://www.w3.org/2000/svg">
<g clip-path="url(#clip0_2001_48)">
<path d="M3.21635 4.64285H7.20682L5.66133 3.71251L5.85688 4.07943L5.67652 3.63091L8.28346 18.0583L9.02192 22.1461C10.1722 21.8135 8.68421 20.0339 9.05689 22.036L9.31501 23.4212C9.46408 24.2212 10.2987 24.8 11.0408 24.8H29.2333C30.1696 24.8 31.0668 23.9358 31.0235 22.9215C30.9803 21.9071 30.2368 21.0434 29.2333 21.0434H11.0408C11.6164 21.503 8.42701 18.8525 9.02192 22.1461C9.19676 23.1117 9.4038 24.5301 10.2716 24.2352C11.2562 23.9011 12.6613 22.1842 12.4741 21.1453L9.66054 5.57754L9.26946 3.41317C9.19124 2.97866 9.13142 2.56346 8.93726 2.16274C8.88021 2.04542 8.81395 1.93148 8.75322 1.81609C8.44725 1.24156 7.82888 0.885742 7.20774 0.885742H3.21635C2.28004 0.885742 1.3833 1.74994 1.42655 2.7643C1.4698 3.77865 2.21287 4.64237 3.21635 4.64237V4.64285Z" fill="#B3B4B5"/>
<path d="M12.525 30.1143C14.0576 30.1143 15.3 28.9247 15.3 27.4572C15.3 25.9897 14.0576 24.8 12.525 24.8C10.9924 24.8 9.75 25.9897 9.75 27.4572C9.75 28.9247 10.9924 30.1143 12.525 30.1143Z" fill="#B3B4B5"/>
<path fill-rule="evenodd" clip-rule="evenodd" d="M12.525 25.9417C11.5568 25.9417 10.772 26.8185 10.772 27.9C10.772 28.9816 11.5568 29.8584 12.525 29.8584C13.4932 29.8584 14.278 28.9816 14.278 27.9C14.278 26.8185 13.4932 25.9417 12.525 25.9417ZM9.75 27.9C9.75 26.188 10.9924 24.8 12.525 24.8C14.0576 24.8 15.3 26.188 15.3 27.9C15.3 29.6121 14.0576 31 12.525 31C10.9924 31 9.75 29.6121 9.75 27.9Z" fill="#B3B4B5"/>
<path d="M25.0125 30.1143C26.2896 30.1143 27.325 28.9247 27.325 27.4572C27.325 25.9897 26.2896 24.8 25.0125 24.8C23.7353 24.8 22.7 25.9897 22.7 27.4572C22.7 28.9247 23.7353 30.1143 25.0125 30.1143Z" fill="#B3B4B5"/>
<path fill-rule="evenodd" clip-rule="evenodd" d="M25.475 25.9417C24.5068 25.9417 23.7219 26.8185 23.7219 27.9C23.7219 28.9816 24.5068 29.8584 25.475 29.8584C26.4431 29.8584 27.228 28.9816 27.228 27.9C27.228 26.8185 26.4431 25.9417 25.475 25.9417ZM22.7 27.9C22.7 26.188 23.9424 24.8 25.475 24.8C27.0075 24.8 28.25 26.188 28.25 27.9C28.25 29.6121 27.0075 31 25.475 31C23.9424 31 22.7 29.6121 22.7 27.9Z" fill="#B3B4B5"/>
<path d="M30.966 15.9428H14.9865L13.45 7.08569H34.3992C34.4878 7.08816 34.5718 7.12957 34.6329 7.20082C34.6939 7.27206 34.727 7.36731 34.7249 7.46563L31.2935 15.5634C31.2945 15.6122 31.2868 15.6607 31.2709 15.7063C31.2549 15.7518 31.2311 15.7933 31.2007 15.8286C31.1703 15.8638 31.1339 15.8921 31.0936 15.9117C31.0534 15.9313 31.01 15.9419 30.966 15.9428Z" fill="white"/>
<path fill-rule="evenodd" clip-rule="evenodd" d="M12.525 6.19995H34.2997L34.3129 6.2003C34.6764 6.21011 35.0213 6.37458 35.272 6.65753C35.5227 6.9405 35.6585 7.31881 35.6496 7.7093L35.6442 7.94576L32.2611 15.6701C32.246 15.7444 32.2255 15.8175 32.1997 15.8887C32.1343 16.0694 32.0364 16.2345 31.9116 16.3745C31.7867 16.5145 31.6373 16.6267 31.472 16.7045C31.3067 16.7824 31.1288 16.8245 30.9483 16.8283L30.938 16.8285H14.4309L12.525 6.19995ZM15.0554 8.44464L16.1562 14.5838H30.4277L33.1166 8.44464H15.0554Z" fill="#B3B4B5"/>
</g>
<defs>
<clipPath id="clip0_2001_48">
<rect width="36" height="31" fill="white" transform="translate(0.5)"/>
</clipPath>
</defs>
</svg>
