<svg width="29" height="29" viewBox="0 0 29 29" fill="none" xmlns="http://www.w3.org/2000/svg">
<path d="M14.5 27C21.4036 27 27 21.4036 27 14.5C27 7.59644 21.4036 2 14.5 2C7.59644 2 2 7.59644 2 14.5C2 21.4036 7.59644 27 14.5 27Z" fill="white" stroke="#3FC0EF" stroke-width="3" stroke-miterlimit="10"/>
<path d="M7.58871 18.3544C7.86048 17.7473 8.24915 17.1997 8.73255 16.7428L18.3488 7.59215C18.7628 7.19912 19.3159 6.98641 19.8866 7.00067C20.4574 7.01494 20.9991 7.25503 21.393 7.66825L21.5564 7.83837C21.9501 8.25254 22.1633 8.8061 22.149 9.37737C22.1347 9.94864 21.8942 10.4909 21.4803 10.8849L12.0454 19.8609C11.5612 20.3219 10.9854 20.6758 10.3554 20.8995C9.02578 21.3696 7.69616 21.7412 7.26414 21.2845C6.8769 20.8771 7.03359 19.6057 7.58871 18.3522V18.3544Z" fill="#46C0EF"/>
<path d="M7 22C7.34518 22 7.625 21.7202 7.625 21.375C7.625 21.0298 7.34518 20.75 7 20.75C6.65482 20.75 6.375 21.0298 6.375 21.375C6.375 21.7202 6.65482 22 7 22Z" fill="#46C0EF"/>
<path d="M8.11023 17.8373C8.11023 17.8373 8.34303 18.7125 9.03246 19.4333C9.72189 20.1541 10.9575 20.3734 10.9575 20.3734C10.9575 20.3734 8.41914 21.7881 7.60883 20.9778C6.72242 20.0914 8.11023 17.8351 8.11023 17.8351V17.8373Z" fill="white"/>
<path d="M20.5085 11.4203L17.8102 8.58675C17.6584 8.4274 17.4062 8.42124 17.2469 8.57299L17.0783 8.73353C16.919 8.88528 16.9128 9.13748 17.0645 9.29684L19.7628 12.1303C19.9146 12.2897 20.1668 12.2959 20.3262 12.1441L20.4947 11.9836C20.6541 11.8318 20.6603 11.5796 20.5085 11.4203Z" fill="white"/>
</svg>
