<svg width="44" height="44" viewBox="0 0 44 44" fill="none" xmlns="http://www.w3.org/2000/svg">
<path d="M22 42C33.0457 42 42 33.0457 42 22C42 10.9543 33.0457 2 22 2C10.9543 2 2 10.9543 2 22C2 33.0457 10.9543 42 22 42Z" fill="white" stroke="#3FC0EF" stroke-width="3" stroke-miterlimit="10"/>
<path d="M10.942 28.1671C11.3769 27.1957 11.9987 26.3195 12.7722 25.5885L28.1581 10.9474C28.8206 10.3186 29.7056 9.97825 30.6187 10.0011C31.5319 10.0239 32.3987 10.408 33.0289 11.0692L33.2904 11.3414C33.9203 12.0041 34.2614 12.8898 34.2385 13.8038C34.2157 14.7178 33.8308 15.5854 33.1686 16.2158L18.0727 30.5774C17.2981 31.3151 16.3767 31.8813 15.3687 32.2392C13.2413 32.9913 11.114 33.5859 10.4227 32.8552C9.80314 32.2034 10.0538 30.1692 10.942 28.1635V28.1671Z" fill="#46C0EF"/>
<path d="M10 34C10.5523 34 11 33.5523 11 33C11 32.4477 10.5523 32 10 32C9.44772 32 9 32.4477 9 33C9 33.5523 9.44772 34 10 34Z" fill="#46C0EF"/>
<path d="M11.7764 27.3396C11.7764 27.3396 12.1488 28.74 13.2519 29.8932C14.355 31.0465 16.332 31.3974 16.332 31.3974C16.332 31.3974 12.2706 33.6609 10.9741 32.3644C9.55587 30.9462 11.7764 27.3361 11.7764 27.3361V27.3396Z" fill="white"/>
<path d="M31.6136 17.0724L27.2963 12.5388C27.0535 12.2838 26.65 12.274 26.395 12.5168L26.1253 12.7736C25.8703 13.0164 25.8605 13.42 26.1033 13.6749L30.4206 18.2085C30.6634 18.4635 31.0669 18.4734 31.3219 18.2306L31.5916 17.9737C31.8466 17.7309 31.8564 17.3274 31.6136 17.0724Z" fill="white"/>
</svg>
