<svg width="35" height="35" viewBox="0 0 35 35" fill="none" xmlns="http://www.w3.org/2000/svg">
<path d="M17.4132 22.8777C20.4584 22.8777 22.927 20.409 22.927 17.3639C22.927 14.3187 20.4584 11.8501 17.4132 11.8501C14.368 11.8501 11.8994 14.3187 11.8994 17.3639C11.8994 20.409 14.368 22.8777 17.4132 22.8777Z" fill="#43C0EF"/>
<path d="M31.3661 19.5316C31.4292 19.537 32.5309 19.5396 32.5949 19.5396C32.8844 19.5455 33.1722 19.4935 33.4413 19.3868C33.7105 19.28 33.9556 19.1207 34.1624 18.918C34.3692 18.7153 34.5335 18.4735 34.6457 18.2065C34.7578 17.9396 34.8156 17.6529 34.8156 17.3634C34.8156 17.0738 34.7578 16.7872 34.6457 16.5202C34.5335 16.2533 34.3692 16.0114 34.1624 15.8087C33.9556 15.6061 33.7105 15.4467 33.4413 15.34C33.1722 15.2332 32.8844 15.1813 32.5949 15.1871C32.522 15.1871 31.4114 15.1871 31.3403 15.1978H31.2923C31.1404 14.2029 30.881 13.2274 30.5187 12.2884L30.5569 12.2715C30.6227 12.2422 31.5857 11.69 31.6488 11.6535C32.1396 11.3604 32.4953 10.886 32.6392 10.3327C32.7831 9.77952 32.7036 9.19189 32.4179 8.69679C32.1321 8.20169 31.6631 7.83886 31.1121 7.68668C30.5611 7.53449 29.9724 7.60516 29.473 7.88343C29.417 7.91544 28.4647 8.46939 28.4122 8.50585C28.3951 8.51711 28.3782 8.52956 28.3616 8.5432C27.7296 7.75843 27.0161 7.04307 26.2329 6.40918C26.2399 6.40097 26.2464 6.39235 26.2524 6.38339C26.2942 6.3247 26.8526 5.36528 26.8891 5.30126C27.0319 5.05377 27.1247 4.78057 27.1619 4.49724C27.1992 4.21392 27.1803 3.92603 27.1064 3.65C27.0324 3.37398 26.9048 3.11523 26.7308 2.88853C26.5568 2.66183 26.3399 2.47162 26.0924 2.32875C25.8449 2.18588 25.5717 2.09316 25.2884 2.05588C25.005 2.0186 24.7172 2.03749 24.4411 2.11147C24.1651 2.18545 23.9064 2.31308 23.6797 2.48706C23.453 2.66103 23.2627 2.87796 23.1199 3.12545C23.0879 3.18058 22.5384 4.13644 22.5117 4.19246L22.4903 4.24137C21.5504 3.87562 20.5733 3.61354 19.5765 3.45978V3.43311C19.5836 3.36197 19.5872 2.25139 19.5872 2.17848C19.5872 1.60071 19.3577 1.0466 18.9491 0.638061C18.5406 0.229517 17.9865 0 17.4087 0C16.8309 0 16.2768 0.229517 15.8683 0.638061C15.4597 1.0466 15.2302 1.60071 15.2302 2.17848C15.2302 2.2425 15.2302 3.34508 15.2382 3.40732C15.2391 3.42489 15.2409 3.44239 15.2436 3.45978C14.2467 3.61354 13.2697 3.87562 12.3297 4.24137L12.3191 4.21647C12.2888 4.15156 11.7367 3.18769 11.6966 3.12456C11.4035 2.63381 10.9291 2.27807 10.3759 2.13417C9.82262 1.99028 9.235 2.06979 8.7399 2.35552C8.2448 2.64125 7.88197 3.11027 7.72978 3.66128C7.5776 4.21228 7.64827 4.80104 7.92653 5.30037C7.95854 5.35639 8.51161 6.30959 8.54895 6.36116C8.56051 6.37717 8.57119 6.39317 8.58363 6.40829C7.80045 7.04218 7.08688 7.75754 6.45495 8.54231L6.42471 8.52008C6.36692 8.47829 5.40661 7.91988 5.34348 7.88343C4.84415 7.60516 4.25539 7.53449 3.70438 7.68668C3.15338 7.83886 2.68436 8.20169 2.39862 8.69679C2.11289 9.19189 2.03339 9.77952 2.17728 10.3327C2.32117 10.886 2.67691 11.3604 3.16767 11.6535C3.22279 11.6855 4.17866 12.2342 4.23468 12.2608L4.29692 12.2884C3.93459 13.2274 3.67521 14.2029 3.52334 15.1978H3.47532C3.40419 15.1907 2.29361 15.1871 2.2207 15.1871C1.93121 15.1813 1.64345 15.2332 1.37429 15.34C1.10513 15.4467 0.85998 15.6061 0.653178 15.8087C0.446376 16.0114 0.282084 16.2533 0.169928 16.5202C0.0577712 16.7872 0 17.0738 0 17.3634C0 17.6529 0.0577712 17.9396 0.169928 18.2065C0.282084 18.4735 0.446376 18.7153 0.653178 18.918C0.85998 19.1207 1.10513 19.28 1.37429 19.3868C1.64345 19.4935 1.93121 19.5455 2.2207 19.5396C2.28472 19.5396 3.38641 19.5396 3.44954 19.5316L3.53134 19.5227C3.68615 20.5163 3.94882 21.4901 4.3147 22.4268C4.28803 22.4375 4.26135 22.4499 4.23468 22.4623C4.17777 22.489 3.2219 23.0368 3.16767 23.0688C2.67691 23.3619 2.32117 23.8363 2.17728 24.3895C2.03339 24.9428 2.11289 25.5304 2.39862 26.0255C2.68436 26.5206 3.15338 26.8834 3.70438 27.0356C4.25539 27.1878 4.84415 27.1171 5.34348 26.8389C5.40661 26.8024 6.36692 26.244 6.42471 26.2031L6.48162 26.1613C6.79372 26.5461 7.12552 26.9144 7.47572 27.2648C7.83465 27.6241 8.21281 27.9637 8.60853 28.282C8.58719 28.3087 8.56852 28.3353 8.54895 28.3629C8.5125 28.4145 7.95943 29.3677 7.92653 29.4228C7.64106 29.9226 7.56514 30.5151 7.71539 31.0707C7.86563 31.6263 8.22981 32.0997 8.72825 32.3875C9.22669 32.6753 9.81883 32.754 10.3751 32.6063C10.9314 32.4586 11.4066 32.0966 11.6966 31.5995C11.7322 31.5364 12.2844 30.5725 12.3191 30.5076L12.3493 30.4374C13.2853 30.7998 14.2578 31.0598 15.2498 31.2127C15.2453 31.2465 15.2409 31.2812 15.2382 31.3159C15.2329 31.379 15.2302 32.4807 15.2302 32.5447C15.2302 33.1225 15.4597 33.6766 15.8683 34.0851C16.2768 34.4937 16.8309 34.7232 17.4087 34.7232C17.9865 34.7232 18.5406 34.4937 18.9491 34.0851C19.3577 33.6766 19.5872 33.1225 19.5872 32.5447C19.5872 32.4718 19.5872 31.3612 19.5765 31.2901C19.5765 31.2643 19.5712 31.2385 19.5676 31.2127C20.5597 31.0601 21.5322 30.8001 22.4681 30.4374C22.4814 30.4685 22.4948 30.4996 22.509 30.5263C22.5357 30.5832 23.0852 31.539 23.1172 31.5933C23.4176 32.0669 23.8892 32.4062 24.4337 32.5406C24.9782 32.675 25.5535 32.5941 26.0398 32.3147C26.5261 32.0352 26.8857 31.5789 27.0438 31.0408C27.2018 30.5027 27.1461 29.9244 26.8882 29.4264C26.8517 29.3632 26.2933 28.4029 26.2515 28.3451C26.2373 28.3247 26.2231 28.3051 26.208 28.2856C26.9896 27.6554 27.7022 26.9442 28.334 26.164L28.4114 26.2209C28.4638 26.2573 29.4161 26.8104 29.4721 26.8433C29.9715 27.1216 30.5602 27.1922 31.1112 27.0401C31.6622 26.8879 32.1313 26.525 32.417 26.0299C32.7027 25.5348 32.7822 24.9472 32.6383 24.394C32.4944 23.8408 32.1387 23.3663 31.648 23.0732C31.5848 23.0376 30.6218 22.4855 30.556 22.4508L30.5 22.4259C30.866 21.4896 31.1287 20.5161 31.2834 19.5227L31.3661 19.5316ZM17.414 24.9165C15.9151 24.9166 14.4498 24.4724 13.2033 23.6398C11.9569 22.8072 10.9853 21.6238 10.4114 20.2391C9.83745 18.8543 9.68702 17.3305 9.97908 15.8603C10.2711 14.3901 10.9926 13.0395 12.0522 11.9793C13.1118 10.9191 14.4619 10.1969 15.932 9.90394C17.402 9.61102 18.9259 9.76056 20.311 10.3336C21.696 10.9067 22.88 11.8776 23.7133 13.1236C24.5466 14.3696 24.9918 15.8346 24.9925 17.3336C24.9913 19.3436 24.1926 21.2709 22.7718 22.6926C21.3509 24.1143 19.424 24.9141 17.414 24.9165Z" fill="#979796"/>
</svg>
