<svg width="243" height="81" viewBox="0 0 243 81" fill="none" xmlns="http://www.w3.org/2000/svg">
<g clip-path="url(#clip0_145_14330)">
<path d="M98.3577 48.2878C99.3916 48.4627 99.7794 49.2063 99.5209 50.5185C99.2624 51.3932 98.7454 52.443 97.9699 53.6677C97.1123 54.9579 96.0663 56.1083 94.8679 57.0793L90.8612 60.0973L85.8206 63.2465L79.7459 66.3957C77.5631 67.3426 75.3172 68.1319 73.025 68.7576C68.1135 70.2009 63.5898 70.5946 59.5831 69.8073C56.4812 69.2824 54.0254 67.8391 52.216 65.4771C51.332 64.372 50.7093 63.0759 50.3956 61.6884C50.082 60.3009 50.0857 58.8588 50.4065 57.4729C51.3112 52.8804 54.2839 48.8126 59.0661 45.1386C63.3744 41.9019 68.1997 39.54 73.542 38.0529C76.9024 37.1344 79.6166 36.7407 81.8139 37.0032C83.6233 37.1781 85.002 37.8342 85.9498 38.9714C87.07 40.2836 87.4146 41.9019 86.9838 43.8264C86.2083 46.8444 83.4941 49.8624 78.7119 53.0116C78.0226 53.5364 77.3763 53.9301 76.7732 54.1925L75.6099 54.9798C73.2835 56.292 70.0522 57.6042 65.787 59.0475C66.821 60.0098 67.8119 60.5347 68.7598 60.6221C69.7428 60.8015 70.7494 60.8015 71.7325 60.6221C72.7386 60.4229 73.7314 60.16 74.7052 59.8348L78.5826 58.2602C79.9613 57.7354 81.383 57.0793 82.8478 56.292C86.2083 54.5862 93.4462 43.9576 96.0312 41.9894C97.4529 40.9397 94.8679 48.9439 96.8067 48.419C97.3131 48.2896 97.8371 48.2452 98.3577 48.2878ZM63.8483 53.9301L65.5285 53.1428L67.0795 52.4867L74.7052 48.419L75.7392 47.238C75.7952 46.9345 75.7952 46.6231 75.7392 46.3195C75.7016 46.0014 75.6143 45.6913 75.4807 45.401C75.2222 44.7012 74.8344 44.3075 74.3174 44.2201C73.7114 44.1552 73.0988 44.1996 72.508 44.3513C71.7943 44.5425 71.1015 44.8063 70.44 45.1386C68.9539 45.8084 67.5972 46.7415 66.4333 47.8941C65.1408 49.2063 64.4946 50.1248 64.2361 51.1745L63.8483 53.9301Z" fill="#3FC0EF"/>
<path d="M123.691 50.2559C123.605 52.4429 124.165 53.5363 125.371 53.5363C128.344 53.4051 132.35 49.4686 137.391 44.876L138.425 45.5321C140.407 44.1325 142.001 43.3889 143.207 43.3014C144.371 43.3014 145.146 43.4327 145.534 43.6951C145.878 44.1325 146.008 44.7448 145.922 45.5321C145.835 47.4566 144.845 49.5124 142.949 51.6993C140.105 55.2422 136.357 58.5226 131.704 61.6718C126.405 65.2146 121.752 66.9204 117.875 66.9204C115.16 66.9204 113.48 65.3458 112.834 62.0654C112.699 61.2403 112.613 60.4078 112.575 59.5723C112.403 57.7353 112.188 56.6855 111.929 56.4231C111.671 56.2481 111.197 56.2919 110.507 56.5543C109.65 56.913 108.828 57.3523 108.052 57.8665L104.95 59.966L94.6099 67.7077C92.542 69.1511 91.2495 69.9384 90.474 69.9384C89.7533 69.9332 89.0443 69.7532 88.406 69.4135C87.7773 69.0751 87.2093 68.6315 86.7258 68.1014C85.6918 66.9642 85.1748 65.827 85.1748 64.6897C85.3041 57.8665 87.1135 51.8305 89.8277 46.4506C91.6372 42.9078 93.7052 40.4147 96.2902 38.8401C97.6287 38.0478 99.1367 37.5975 100.685 37.5279C103.528 37.2655 104.95 38.3152 104.821 40.4147C104.821 41.7268 103.787 43.8263 102.365 46.8443L101.331 48.9438C100.642 50.3434 100.297 51.1744 100.297 51.4369C100.383 52.0492 100.642 52.3554 101.072 52.3554C101.589 52.3554 102.322 51.9617 103.27 51.1744L109.215 46.057L112.188 43.5639C115.807 40.8083 119.426 39.2337 121.106 39.1025C121.968 39.015 122.786 39.3649 123.562 40.1522C124.854 41.4644 124.466 42.9078 124.466 43.9575C124.448 44.3971 124.405 44.8352 124.337 45.2697L124.079 46.8443L123.82 48.5501C123.745 49.1157 123.702 49.6853 123.691 50.2559Z" fill="#3FC0EF"/>
<path d="M146.826 48.9439C143.595 50.9121 142.173 52.7492 142.302 54.9798C142.432 55.8984 142.949 56.4232 144.112 56.4232C145.146 56.4232 148.377 55.1111 151.737 52.8804L154.71 50.9121C156.778 49.425 158.501 48.0691 159.88 46.8444L161.69 41.2021C164.016 34.3788 166.558 28.6053 169.315 23.8815C172.546 18.3704 176.553 13.6466 181.206 13.1218C183.016 12.8593 184.394 13.0343 185.342 13.6466C187.238 14.6089 188.099 15.8336 187.927 17.3207C187.841 18.8078 187.496 20.3824 186.893 22.0445C186.247 23.7503 185.601 24.6688 184.567 26.2434C183.62 27.9599 182.584 29.6243 181.465 31.2296L177.07 36.872L174.097 41.0709C172.46 44.3076 171.599 47.0631 171.512 49.3375C171.383 52.6179 172.417 54.1925 174.614 54.0613C175.907 54.0613 178.363 52.4867 181.982 49.6L186.764 45.5323C189.004 43.4328 191.201 41.9457 193.355 41.0709L194.906 40.546C196.113 40.546 196.673 41.1584 196.587 42.3831C196.457 44.2201 195.036 47.1069 192.192 50.6497C190.253 53.1428 186.505 56.5544 180.948 61.0158C174.614 66.002 169.574 68.3639 166.084 68.3639C163.37 68.4952 161.431 67.3142 160.268 64.9523C159.492 63.5527 158.932 61.4969 158.588 58.7851L155.356 61.147C146.955 67.3142 139.976 69.9385 136.098 69.9385C132.996 69.9385 130.541 68.6264 128.86 66.1333C127.309 63.9026 127.568 61.6719 127.697 58.5227C127.826 55.1111 129.119 52.6179 131.704 49.7312C135.969 45.0074 136.615 45.1386 140.105 42.7767C142.819 41.0709 152.254 37.528 153.03 37.3968C153.73 37.3371 154.434 37.4265 155.098 37.6593C155.78 37.9354 156.431 38.2875 157.037 38.709C158.501 39.6712 159.191 40.6772 159.105 41.727C159.105 42.6017 158.588 43.3453 157.554 43.9577" fill="#3FC0EF"/>
<path d="M183.274 56.9479C182.775 56.94 182.286 56.8046 181.853 56.5543C181.4 56.3432 181.002 56.0288 180.689 55.6358C179.914 54.586 178.492 55.2421 178.621 53.4051C178.751 51.4368 182.887 48.2877 184.696 44.7448C187.798 38.5776 193.097 34.7723 194.907 33.8538C199.043 31.8856 199.172 31.6231 201.757 31.4919C203.954 31.2295 205.505 31.7544 206.281 32.9353L206.798 33.7226C207.142 34.4224 207.53 34.7286 207.961 34.6411L210.029 34.3787L215.974 33.5914L218.171 33.329C218.688 33.329 219.292 33.4602 219.981 33.7226C220.667 34.0285 221.283 34.4753 221.79 35.0348C222.824 36.3469 223.298 37.7903 223.212 39.3649C223.083 41.0707 220.886 43.6951 216.75 47.3691L213.777 50.1247C211.709 52.0929 210.546 53.2739 210.546 53.7987C210.546 54.2361 210.761 54.6298 211.192 54.9797C211.629 55.3394 212.18 55.5259 212.743 55.5046C213.346 55.5046 214.035 55.3733 214.811 55.1109L217.654 53.6675L221.532 51.4368L229.933 46.057L233.81 43.5639C236.525 41.858 238.334 40.9395 239.497 40.8083C240.618 40.7208 241.479 40.8958 242.082 41.3332C242.772 41.6831 243.073 42.3829 242.987 43.4326C242.901 44.4824 242.168 45.9258 240.79 47.7628C239.529 49.4794 238.1 51.062 236.525 52.4866L232.259 56.0294C230.881 57.1666 229.287 58.3476 227.477 59.5723C225.754 60.8844 223.815 62.1529 221.661 63.3776C219.536 64.6535 217.335 65.7929 215.069 66.7892C210.029 69.0199 205.505 70.0696 201.498 70.0696C195.811 70.0696 192.58 68.7574 191.546 66.0019C191.201 65.0824 191.068 64.0948 191.158 63.1151C191.289 61.9802 191.594 60.8732 192.063 59.8347C192.562 58.5598 193.167 57.3306 193.873 56.1606C195.329 53.8095 197.065 51.6499 199.043 49.731C200.723 48.0252 201.628 47.1067 201.628 46.7131C201.628 46.2757 201.369 45.9695 200.852 45.7945H198.396C197.879 45.7945 196.845 46.4506 195.165 47.894L191.288 51.4368C187.022 55.1109 184.438 56.8167 183.274 56.9479ZM58.291 80.9606H10.0814C7.42987 80.9608 4.88503 79.9005 2.99808 78.0094C1.11112 76.1183 0.0339936 73.5486 0 70.8569V21.9131C0 19.1987 1.06214 16.5954 2.95277 14.676C4.84339 12.7565 7.40763 11.6782 10.0814 11.6782L65.529 12.2031L59.325 18.2391H10.0814C9.12157 18.2391 8.20108 18.6261 7.52239 19.3152C6.8437 20.0042 6.46242 20.9387 6.46242 21.9131V70.8569C6.49592 71.8084 6.89193 72.7095 7.56702 73.3704C8.24211 74.0313 9.14355 74.4004 10.0814 74.3997H58.291C58.9834 74.3808 59.6559 74.1606 60.2287 73.7652C60.8014 73.3698 61.2504 72.8158 61.5223 72.1691L61.7808 71.7754C61.7808 71.7754 63.2025 72.1691 64.495 72.0379C64.5811 72.0335 64.6674 72.0335 64.7535 72.0379H65.1412C66.1858 72.0149 67.2252 71.8829 68.2432 71.6442L68.1139 72.5627C67.6934 74.9035 66.4827 77.0223 64.69 78.5549C62.8973 80.0875 60.6346 80.9382 58.291 80.9606Z" fill="#3FC0EF"/>
<path d="M68.2427 37.6593L66.304 38.5778L64.1067 39.7587L61.7803 40.9397V38.0529L64.236 34.9037L65.9162 33.0667L68.2427 30.1799V37.6593Z" fill="#3FC0EF"/>
<path d="M12.1492 50.5185C14.3292 51.7128 16.4434 53.0269 18.4824 54.455L19.9042 55.6359C20.8089 56.292 19.1287 54.9799 19.7749 55.5047L20.4211 56.0296C21.4551 56.8169 22.446 57.6917 23.3939 58.6539C24.2555 59.4412 25.0741 60.316 25.8496 61.2782C26.2804 61.6282 26.6682 62.0655 27.0128 62.5904L27.7883 63.3777C27.9176 63.6401 28.4345 64.4274 27.6591 63.2465L29.727 66.2645C30.3491 67.324 30.9102 68.4193 31.4073 69.5449C32.0535 71.1195 33.9922 72.038 35.6725 72.038C37.2234 72.038 39.2914 71.1195 39.9377 69.5449C42.5226 63.3777 45.4953 57.2105 49.1143 51.5682L55.3182 42.9079L56.74 41.0709C56.9985 40.546 55.9645 41.8582 56.3522 41.4645L56.74 41.0709L57.3862 40.1524L59.8419 37.0032C64.3656 31.3609 69.1478 25.8498 74.447 20.8635L78.1952 17.7143L79.0999 16.927C79.0999 17.0583 78.0659 17.7143 78.7122 17.3207L79.2292 16.927L81.1679 15.4837C83.7529 13.6466 86.2086 11.9408 89.4398 10.7599L88.2766 11.2847L89.8276 10.6286C90.9908 10.1038 92.154 8.92283 92.8003 8.00432C93.4465 6.95458 93.4465 5.64242 93.3173 4.46147C93.0588 2.23079 91.3785 -1.44328 86.4671 0.656188C80.5217 3.28052 75.6102 6.95458 70.5695 11.1535C66.6074 14.4086 62.8918 17.9615 59.4542 21.7821L54.155 28.2117C50.1483 33.1979 46.2708 38.3153 42.6519 43.564C38.1015 50.0409 34.3268 57.0446 31.4073 64.4274H39.9377C37.7404 59.5724 34.2507 55.1111 30.3733 51.437C26.3666 47.7629 21.9721 44.4825 17.1899 41.727C14.8635 40.546 11.6323 41.2021 10.3398 43.564C9.17653 45.9259 9.69352 49.0751 12.1492 50.5185Z" fill="#3FC0EF"/>
</g>
<defs>
<clipPath id="clip0_145_14330">
<rect width="243" height="81" fill="white"/>
</clipPath>
</defs>
</svg>
