<svg width="126" height="42" viewBox="0 0 126 42" fill="none" xmlns="http://www.w3.org/2000/svg">
<g clip-path="url(#clip0_145_12519)">
<path d="M51.0005 25.0382C51.5367 25.1289 51.7377 25.5144 51.6037 26.1948C51.4696 26.6484 51.2016 27.1927 50.7995 27.8277C50.3548 28.4968 49.8124 29.0933 49.191 29.5967L47.1135 31.1616L44.4998 32.7945L41.35 34.4275C40.2182 34.9185 39.0536 35.3277 37.865 35.6521C35.3184 36.4006 32.9728 36.6047 30.8952 36.1964C29.2868 35.9243 28.0134 35.1759 27.0752 33.9512C26.6169 33.3782 26.294 32.7061 26.1313 31.9866C25.9687 31.2672 25.9706 30.5194 26.1369 29.8009C26.6061 27.4195 28.1475 25.3103 30.6271 23.4053C32.8611 21.727 35.3631 20.5023 38.1331 19.7312C39.8756 19.2549 41.2829 19.0508 42.4223 19.1869C43.3605 19.2776 44.0754 19.6178 44.5668 20.2075C45.1476 20.8878 45.3264 21.727 45.103 22.7249C44.7009 24.2898 43.2935 25.8546 40.8138 27.4876C40.4564 27.7597 40.1213 27.9638 39.8086 28.0999L39.2054 28.5081C37.9991 29.1885 36.3236 29.8689 34.1121 30.6173C34.6482 31.1163 35.162 31.3884 35.6535 31.4338C36.1632 31.5268 36.6852 31.5268 37.1949 31.4338C37.7166 31.3305 38.2314 31.1941 38.7363 31.0255L40.7468 30.2091C41.4617 29.9369 42.1989 29.5967 42.9584 29.1885C44.7009 28.304 48.4538 22.7929 49.7942 21.7723C50.5314 21.228 49.191 25.3784 50.1963 25.1062C50.4589 25.0391 50.7306 25.0161 51.0005 25.0382ZM33.1068 27.9638L33.978 27.5556L34.7822 27.2154L38.7363 25.1062L39.2724 24.4939C39.3015 24.3365 39.3015 24.175 39.2724 24.0176C39.2529 23.8526 39.2077 23.6919 39.1384 23.5413C39.0043 23.1785 38.8033 22.9744 38.5352 22.929C38.221 22.8954 37.9033 22.9184 37.597 22.997C37.2269 23.0962 36.8677 23.233 36.5247 23.4053C35.7541 23.7526 35.0507 24.2364 34.4471 24.8341C33.777 25.5144 33.4419 25.9907 33.3078 26.535L33.1068 27.9638Z" fill="white"/>
<path d="M64.1358 26.0587C64.0912 27.1927 64.3816 27.7597 65.0071 27.7597C66.5485 27.6917 68.626 25.6505 71.2397 23.2692L71.7758 23.6094C72.8035 22.8836 73.63 22.4981 74.2555 22.4527C74.8587 22.4527 75.2608 22.5207 75.4618 22.6568C75.6405 22.8836 75.7076 23.2011 75.6629 23.6094C75.6182 24.6073 75.1044 25.6732 74.1215 26.8072C72.6471 28.6442 70.7036 30.3451 68.2909 31.9781C65.5432 33.8151 63.1306 34.6996 61.12 34.6996C59.7127 34.6996 58.8414 33.8831 58.5063 32.1822C58.4365 31.7543 58.3917 31.3227 58.3723 30.8894C58.2829 29.9369 58.1713 29.3926 58.0372 29.2565C57.9032 29.1658 57.6574 29.1885 57.3 29.3246C56.8556 29.5106 56.4293 29.7383 56.0267 30.005L54.4183 31.0936L49.0568 35.1078C47.9846 35.8562 47.3144 36.2645 46.9123 36.2645C46.5386 36.2618 46.171 36.1685 45.84 35.9923C45.514 35.8168 45.2195 35.5868 44.9688 35.3119C44.4326 34.7223 44.1646 34.1326 44.1646 33.5429C44.2316 30.005 45.1698 26.8752 46.5772 24.0856C47.5154 22.2486 48.5877 20.9559 49.9281 20.1394C50.6221 19.7286 51.4041 19.4951 52.2067 19.459C53.6811 19.3229 54.4183 19.8673 54.3512 20.9559C54.3512 21.6362 53.8151 22.7249 53.0779 24.2897L52.5418 25.3784C52.1843 26.1041 52.0056 26.535 52.0056 26.6711C52.0503 26.9886 52.1843 27.1473 52.4077 27.1473C52.6758 27.1473 53.0556 26.9432 53.547 26.535L56.6298 23.8815L58.1713 22.5888C60.0477 21.16 61.9242 20.3435 62.7955 20.2755C63.2423 20.2301 63.6667 20.4116 64.0688 20.8198C64.739 21.5002 64.5379 22.2486 64.5379 22.7929C64.5285 23.0208 64.5062 23.248 64.4709 23.4733L64.3369 24.2897L64.2028 25.1742C64.1638 25.4675 64.1414 25.7628 64.1358 26.0587Z" fill="white"/>
<path d="M76.1324 25.3783C74.4569 26.3989 73.7197 27.3515 73.7867 28.5081C73.8538 28.9844 74.1218 29.2565 74.725 29.2565C75.2611 29.2565 76.9366 28.5761 78.679 27.4195L80.2204 26.3989C81.2927 25.6278 82.1863 24.9248 82.9012 24.2897L83.8394 21.3641C85.0457 17.8261 86.3637 14.8324 87.7935 12.383C89.4689 9.52544 91.5464 7.07606 93.9591 6.80391C94.8973 6.66783 95.6122 6.75855 96.1036 7.07606C97.0866 7.57501 97.5334 8.21003 97.444 8.98113C97.3993 9.75223 97.2206 10.5687 96.9079 11.4305C96.5728 12.315 96.2377 12.7913 95.7015 13.6077C95.2107 14.4977 94.6738 15.3608 94.0931 16.1932L91.8145 19.1188L90.2731 21.2961C89.4242 22.9743 88.9774 24.4031 88.9328 25.5825C88.8657 27.2834 89.4019 28.0999 90.5412 28.0318C91.2114 28.0318 92.4847 27.2154 94.3612 25.7185L96.8408 23.6094C98.0025 22.5207 99.1418 21.7496 100.259 21.2961L101.063 21.0239C101.688 21.0239 101.979 21.3414 101.934 21.9764C101.867 22.929 101.13 24.4258 99.6556 26.2628C98.6503 27.5556 96.7068 29.3246 93.825 31.6379C90.5412 34.2233 87.9275 35.448 86.118 35.448C84.7106 35.516 83.7054 34.9037 83.1022 33.679C82.7001 32.9533 82.4097 31.8873 82.231 30.4812L80.5555 31.7059C76.1994 34.9037 72.5804 36.2645 70.5699 36.2645C68.9615 36.2645 67.6881 35.5841 66.8169 34.2914C66.0127 33.1347 66.1467 31.9781 66.2137 30.3451C66.2808 28.5761 66.9509 27.2834 68.2913 25.7866C70.5029 23.3372 70.838 23.4052 72.6474 22.1806C74.0548 21.2961 78.9471 19.459 79.3492 19.391C79.7121 19.36 80.0773 19.4064 80.4215 19.5271C80.7754 19.6703 81.1125 19.8528 81.4268 20.0714C82.1863 20.5703 82.5437 21.0919 82.4991 21.6362C82.4991 22.0898 82.231 22.4754 81.6948 22.7929" fill="white"/>
<path d="M95.0311 29.5286C94.7724 29.5245 94.5189 29.4543 94.2939 29.3245C94.0594 29.215 93.853 29.052 93.6908 28.8482C93.2887 28.3039 92.5515 28.6441 92.6185 27.6916C92.6855 26.671 94.8301 25.0381 95.7683 23.2011C97.3767 20.0033 100.124 18.0301 101.063 17.5539C103.207 16.5333 103.274 16.3972 104.615 16.3292C105.754 16.1931 106.558 16.4653 106.96 17.0776L107.228 17.4858C107.407 17.8487 107.608 18.0075 107.831 17.9621L108.904 17.826L111.987 17.4178L113.126 17.2817C113.394 17.2817 113.707 17.3498 114.064 17.4858C114.42 17.6445 114.739 17.8761 115.002 18.1662C115.539 18.8466 115.784 19.595 115.74 20.4115C115.673 21.296 114.533 22.6567 112.389 24.5618L110.847 25.9906C109.775 27.0112 109.172 27.6235 109.172 27.8957C109.172 28.1225 109.284 28.3266 109.507 28.508C109.734 28.6945 110.019 28.7912 110.311 28.7802C110.624 28.7802 110.981 28.7122 111.383 28.5761L112.858 27.8277L114.868 26.671L119.225 23.8814L121.235 22.5887C122.642 21.7042 123.581 21.2279 124.184 21.1599C124.765 21.1145 125.211 21.2053 125.524 21.4321C125.882 21.6135 126.038 21.9764 125.993 22.5207C125.949 23.065 125.569 23.8134 124.854 24.7659C124.2 25.656 123.459 26.4767 122.642 27.2153L120.431 29.0523C119.716 29.642 118.889 30.2544 117.951 30.8894C117.058 31.5698 116.052 32.2275 114.935 32.8625C113.834 33.5241 112.692 34.1149 111.517 34.6315C108.904 35.7881 106.558 36.3324 104.481 36.3324C101.532 36.3324 99.8564 35.6521 99.3203 34.2232C99.1413 33.7465 99.0725 33.2344 99.1192 32.7264C99.1867 32.1379 99.345 31.5639 99.5883 31.0255C99.8469 30.3644 100.161 29.727 100.527 29.1204C101.282 27.9013 102.182 26.7815 103.207 25.7865C104.079 24.902 104.548 24.4257 104.548 24.2216C104.548 23.9948 104.414 23.8361 104.146 23.7454H102.872C102.604 23.7454 102.068 24.0856 101.197 24.834L99.1862 26.671C96.9746 28.5761 95.6343 29.4606 95.0311 29.5286ZM30.225 41.9796H5.22738C3.85253 41.9797 2.53298 41.4299 1.55456 40.4494C0.576138 39.4688 0.0176263 38.1363 0 36.7407V11.3624C0 9.9549 0.550741 8.60505 1.53106 7.6098C2.51139 6.61455 3.84099 6.05542 5.22738 6.05542L33.978 6.32757L30.7611 9.45733H5.22738C4.7297 9.45733 4.25241 9.65804 3.9005 10.0153C3.54859 10.3726 3.35089 10.8571 3.35089 11.3624V36.7407C3.36825 37.234 3.5736 37.7013 3.92364 38.044C4.27369 38.3867 4.7411 38.578 5.22738 38.5777H30.225C30.584 38.5679 30.9327 38.4537 31.2297 38.2487C31.5267 38.0436 31.7595 37.7564 31.9004 37.421L32.0345 37.2169C32.0345 37.2169 32.7717 37.421 33.4418 37.353C33.4865 37.3507 33.5312 37.3507 33.5759 37.353H33.7769C34.3185 37.3411 34.8575 37.2727 35.3854 37.1489L35.3183 37.6252C35.1003 38.8389 34.4725 39.9375 33.5429 40.7322C32.6134 41.5269 31.4402 41.968 30.225 41.9796Z" fill="white"/>
<path d="M35.3856 19.5269L34.3803 20.0031L33.241 20.6155L32.0347 21.2278V19.731L33.308 18.0981L34.1792 17.1455L35.3856 15.6487V19.5269Z" fill="white"/>
<path d="M6.29979 26.1948C7.43016 26.8141 8.52641 27.4955 9.58366 28.236L10.3209 28.8483C10.79 29.1885 9.91875 28.5081 10.2538 28.7803L10.5889 29.0524C11.1251 29.4607 11.6389 29.9142 12.1303 30.4132C12.5771 30.8214 13.0016 31.275 13.4037 31.774C13.6271 31.9554 13.8281 32.1822 14.0068 32.4543L14.4089 32.8626C14.476 32.9986 14.744 33.4069 14.3419 32.7945L15.4142 34.3594C15.7368 34.9088 16.0277 35.4767 16.2854 36.0604C16.6205 36.8768 17.6258 37.3531 18.497 37.3531C19.3012 37.3531 20.3735 36.8768 20.7086 36.0604C22.049 32.8626 23.5904 29.6648 25.4669 26.7391L28.6837 22.2486L29.4209 21.2961C29.5549 21.0239 29.0188 21.7043 29.2198 21.5002L29.4209 21.2961L29.756 20.8198L31.0293 19.1869C33.3749 16.2612 35.8546 13.4036 38.6023 10.8182L40.5458 9.18526L41.015 8.77703C41.015 8.84507 40.4788 9.18526 40.8139 8.98114L41.082 8.77703L42.0872 8.02861C43.4276 7.07608 44.7009 6.19158 46.3764 5.57923L45.7732 5.85139L46.5774 5.5112C47.1806 5.23904 47.7838 4.6267 48.1188 4.15043C48.4539 3.60613 48.4539 2.92574 48.3869 2.3134C48.2529 1.15675 47.3816 -0.748321 44.835 0.340291C41.7522 1.70106 39.2055 3.60613 36.5918 5.78335C34.5373 7.47119 32.6107 9.31341 30.8283 11.2944L28.0805 14.6283C26.003 17.2138 23.9925 19.8673 22.116 22.5888C19.7565 25.9472 17.7992 29.5787 16.2854 33.4069H20.7086C19.5693 30.8895 17.7598 28.5762 15.7493 26.6711C13.6717 24.766 11.3931 23.0651 8.91348 21.6363C7.70716 21.0239 6.03172 21.3641 5.36154 22.5888C4.75838 23.8135 5.02645 25.4464 6.29979 26.1948Z" fill="white"/>
</g>
<defs>
<clipPath id="clip0_145_12519">
<rect width="126" height="42" fill="white"/>
</clipPath>
</defs>
</svg>
