<svg width="112" height="112" viewBox="0 0 112 112" fill="none" xmlns="http://www.w3.org/2000/svg">
<g filter="url(#filter0_d_2063_3129)">
<path d="M56.4761 99.9436C82.7228 99.9436 104 78.6664 104 52.4197C104 26.1729 82.7228 4.89575 56.4761 4.89575C30.2293 4.89575 8.95215 26.1729 8.95215 52.4197C8.95215 78.6664 30.2293 99.9436 56.4761 99.9436Z" fill="#EE393B"/>
<path d="M56.4761 99.9436C82.7228 99.9436 104 78.6664 104 52.4197C104 26.1729 82.7228 4.89575 56.4761 4.89575C30.2293 4.89575 8.95215 26.1729 8.95215 52.4197C8.95215 78.6664 30.2293 99.9436 56.4761 99.9436Z" stroke="#EE393B" stroke-width="8" stroke-miterlimit="10"/>
</g>
<g filter="url(#filter1_d_2063_3129)">
<path d="M56.0682 91.8544C78.4058 91.8544 96.5141 73.7462 96.5141 51.4085C96.5141 29.0709 78.4058 10.9626 56.0682 10.9626C33.7306 10.9626 15.6223 29.0709 15.6223 51.4085C15.6223 73.7462 33.7306 91.8544 56.0682 91.8544Z" fill="white"/>
<path d="M56.0682 91.8544C78.4058 91.8544 96.5141 73.7462 96.5141 51.4085C96.5141 29.0709 78.4058 10.9626 56.0682 10.9626C33.7306 10.9626 15.6223 29.0709 15.6223 51.4085C15.6223 73.7462 33.7306 91.8544 56.0682 91.8544Z" stroke="#EE393B"/>
</g>
<g filter="url(#filter2_d_2063_3129)">
<path d="M95.9495 88.7578L75.3866 65.4371L54.8237 42.1165L43.2241 28.8898L32.679 39.3319L53.2419 62.6526L73.6291 85.7992L85.0529 98.8519L95.598 88.4098L81.5379 72.3985L67.4778 56.3873L53.4176 40.3761L39.3575 24.5389L25.1216 8.35368L23.5399 6.43929L12.9948 16.8814L26.3519 32.0224L39.709 47.3375L53.0661 62.4786L66.4233 77.7936L79.7804 92.9347L81.5379 94.8491C82.5623 95.897 83.8864 96.609 85.3319 96.889C86.7773 97.1691 88.2748 97.0038 89.6225 96.4154C90.5678 96.1173 91.4167 95.5769 92.083 94.8491C93.3133 93.4568 94.3678 91.5424 94.192 89.628L94.0163 87.5396C93.6445 86.3526 92.9801 85.276 92.083 84.407L77.8471 68.2217L63.787 52.2105L49.7269 36.1993L35.6667 20.1881L21.4309 4.17684L19.6733 2.08842C18.2203 0.79714 16.3523 0.057249 14.4008 0C12.4493 0.057249 10.5813 0.79714 9.12825 2.08842C7.89799 3.65473 6.84348 5.39508 7.01923 7.30947L7.19499 9.39789C7.53961 10.6472 8.20574 11.7865 9.12825 12.7046L23.3641 28.7158L37.4243 44.727L51.4844 60.7382L65.5445 76.7494L79.7804 92.9347L81.5379 94.8491L92.083 84.407L78.7259 69.0919L65.193 53.9508L51.8359 38.8098L38.4788 23.4947L25.1216 8.35368L23.5399 6.43929C22.1124 5.0846 20.2416 4.28184 18.2673 4.17684C16.293 4.28184 14.4222 5.0846 12.9948 6.43929C11.5888 7.83157 10.71 9.74596 10.71 11.6603L11.0615 13.5747C11.4061 14.824 12.0723 15.9634 12.9948 16.8814L27.0549 32.8926L41.115 48.9038L55.1752 64.915L69.2353 80.9263L83.2954 96.9375L85.0529 98.8519C86.0908 99.9365 87.4463 100.671 88.9284 100.952C90.4104 101.233 91.9441 101.046 93.3133 100.418C94.1952 100.094 94.9807 99.555 95.598 98.8519C97.004 97.4596 97.8828 95.7192 97.8828 93.6308L97.5313 91.7164C97.1867 90.4671 96.5205 89.3278 95.598 88.4098L75.2108 65.2631L54.8237 41.9424L43.2241 28.8898C42.1997 27.8418 40.8756 27.1299 39.4301 26.8498C37.9846 26.5698 36.4872 26.7351 35.1395 27.3235C34.1942 27.6216 33.3453 28.1619 32.679 28.8898C31.4487 30.2821 30.3942 32.1965 30.5699 34.1109L30.7457 36.1993C31.1174 37.3862 31.7819 38.4628 32.679 39.3319L53.2419 62.8266L73.8048 86.1473L85.4044 99.374C86.4629 100.43 87.8281 101.132 89.3092 101.381C90.7903 101.631 92.3132 101.416 93.6648 100.766C94.5286 100.491 95.3125 100.014 95.9495 99.374C97.3555 97.8077 98.2343 96.0673 98.2343 94.1529L97.8828 92.0645C97.5458 90.812 96.8786 89.6708 95.9495 88.7578Z" fill="#EE363C"/>
</g>
<defs>
<filter id="filter0_d_2063_3129" x="0.952148" y="0.895752" width="111.048" height="111.048" filterUnits="userSpaceOnUse" color-interpolation-filters="sRGB">
<feFlood flood-opacity="0" result="BackgroundImageFix"/>
<feColorMatrix in="SourceAlpha" type="matrix" values="0 0 0 0 0 0 0 0 0 0 0 0 0 0 0 0 0 0 127 0" result="hardAlpha"/>
<feOffset dy="4"/>
<feGaussianBlur stdDeviation="2"/>
<feComposite in2="hardAlpha" operator="out"/>
<feColorMatrix type="matrix" values="0 0 0 0 0 0 0 0 0 0 0 0 0 0 0 0 0 0 0.25 0"/>
<feBlend mode="normal" in2="BackgroundImageFix" result="effect1_dropShadow_2063_3129"/>
<feBlend mode="normal" in="SourceGraphic" in2="effect1_dropShadow_2063_3129" result="shape"/>
</filter>
<filter id="filter1_d_2063_3129" x="11.6223" y="10.9626" width="88.8918" height="88.8918" filterUnits="userSpaceOnUse" color-interpolation-filters="sRGB">
<feFlood flood-opacity="0" result="BackgroundImageFix"/>
<feColorMatrix in="SourceAlpha" type="matrix" values="0 0 0 0 0 0 0 0 0 0 0 0 0 0 0 0 0 0 127 0" result="hardAlpha"/>
<feOffset dy="4"/>
<feGaussianBlur stdDeviation="2"/>
<feComposite in2="hardAlpha" operator="out"/>
<feColorMatrix type="matrix" values="0 0 0 0 0 0 0 0 0 0 0 0 0 0 0 0 0 0 0.25 0"/>
<feBlend mode="normal" in2="BackgroundImageFix" result="effect1_dropShadow_2063_3129"/>
<feBlend mode="normal" in="SourceGraphic" in2="effect1_dropShadow_2063_3129" result="shape"/>
</filter>
<filter id="filter2_d_2063_3129" x="3" y="0" width="99.2344" height="109.482" filterUnits="userSpaceOnUse" color-interpolation-filters="sRGB">
<feFlood flood-opacity="0" result="BackgroundImageFix"/>
<feColorMatrix in="SourceAlpha" type="matrix" values="0 0 0 0 0 0 0 0 0 0 0 0 0 0 0 0 0 0 127 0" result="hardAlpha"/>
<feOffset dy="4"/>
<feGaussianBlur stdDeviation="2"/>
<feComposite in2="hardAlpha" operator="out"/>
<feColorMatrix type="matrix" values="0 0 0 0 0 0 0 0 0 0 0 0 0 0 0 0 0 0 0.25 0"/>
<feBlend mode="normal" in2="BackgroundImageFix" result="effect1_dropShadow_2063_3129"/>
<feBlend mode="normal" in="SourceGraphic" in2="effect1_dropShadow_2063_3129" result="shape"/>
</filter>
</defs>
</svg>
