<svg width="103" height="101" viewBox="0 0 103 101" fill="none" xmlns="http://www.w3.org/2000/svg">
<g filter="url(#filter0_d_2063_3111)">
<path d="M51.5357 90C76.1321 90 96.0714 70.5244 96.0714 46.5C96.0714 22.4756 76.1321 3 51.5357 3C26.9393 3 7 22.4756 7 46.5C7 70.5244 26.9393 90 51.5357 90Z" fill="#F6CB40"/>
<path d="M51.5357 90C76.1321 90 96.0714 70.5244 96.0714 46.5C96.0714 22.4756 76.1321 3 51.5357 3C26.9393 3 7 22.4756 7 46.5C7 70.5244 26.9393 90 51.5357 90Z" stroke="#F8CF4A" stroke-width="5" stroke-miterlimit="10"/>
</g>
<g filter="url(#filter1_d_2063_3111)">
<path d="M51.5366 85.2512C72.2695 85.2512 89.0769 68.4438 89.0769 47.7109C89.0769 26.978 72.2695 10.1707 51.5366 10.1707C30.8037 10.1707 13.9963 26.978 13.9963 47.7109C13.9963 68.4438 30.8037 85.2512 51.5366 85.2512Z" fill="white"/>
</g>
<g filter="url(#filter2_d_2063_3111)">
<path d="M28.7101 48.5142C34.9212 48.6473 41.1175 49.1933 47.2603 50.149L45.9919 49.9855C54.395 51.2934 62.6396 53.5821 70.7256 56.8517L77.3847 59.9578L76.2748 59.4673C78.2831 60.4482 80.2386 61.5381 82.1411 62.7369C83.251 63.5543 84.5194 63.7178 85.7878 63.3908C86.4187 63.1463 86.9959 62.7745 87.486 62.2974C87.976 61.8202 88.3688 61.2472 88.6417 60.6117C89.2759 59.3038 89.593 57.6691 89.1173 56.1977C88.8002 54.7264 88.0075 53.4186 86.8976 52.7647C79.9611 48.5093 72.5645 45.1074 64.8593 42.629C53.1419 38.9266 40.965 36.9992 28.7101 36.9072C27.6002 36.9072 26.1733 37.5611 25.3806 38.542C24.5878 39.5229 23.9536 41.3212 23.9536 42.629C24.1122 45.8986 26.1733 48.5142 28.8686 48.5142H28.7101Z" fill="#F5CA41"/>
</g>
<path d="M43.5048 33.1872C44.1442 32.4805 51.3365 26.121 51.0168 22.0579L50.5373 19.938C49.898 18.8781 48.4596 17.8182 47.1809 17.6415C44.1442 17.1116 42.386 18.5248 40.3083 21.3513C38.2305 24.1778 35.5134 26.8276 35.0339 27.3576L27.0424 33.7171L28.1612 33.0105L23.5262 36.7203C22.2475 37.7802 20.9689 38.6635 20.0099 40.2534C18.8911 42.1966 18.7313 45.0231 20.0099 47.1429C20.4223 47.9023 20.9043 48.6126 21.4484 49.2628L30.7185 55.9757L36.1527 60.392L35.0339 59.6854C38.3903 62.5119 41.4271 65.8683 44.4638 69.2248C45.263 70.2847 46.7014 70.8147 47.9801 70.8147C49.2587 70.8147 50.6972 70.2847 51.4963 69.2248C53.4143 67.1049 53.5741 63.2185 51.6562 60.922C48.939 57.9189 46.2219 54.7391 43.1852 52.0893C39.6689 49.0861 37.1117 47.6729 33.5954 44.6697C32.7963 43.9631 38.0706 39.3701 43.5048 33.1872Z" fill="#F5CA41"/>
<defs>
<filter id="filter0_d_2063_3111" x="0.5" y="0.5" width="102.072" height="100" filterUnits="userSpaceOnUse" color-interpolation-filters="sRGB">
<feFlood flood-opacity="0" result="BackgroundImageFix"/>
<feColorMatrix in="SourceAlpha" type="matrix" values="0 0 0 0 0 0 0 0 0 0 0 0 0 0 0 0 0 0 127 0" result="hardAlpha"/>
<feOffset dy="4"/>
<feGaussianBlur stdDeviation="2"/>
<feComposite in2="hardAlpha" operator="out"/>
<feColorMatrix type="matrix" values="0 0 0 0 0 0 0 0 0 0 0 0 0 0 0 0 0 0 0.25 0"/>
<feBlend mode="normal" in2="BackgroundImageFix" result="effect1_dropShadow_2063_3111"/>
<feBlend mode="normal" in="SourceGraphic" in2="effect1_dropShadow_2063_3111" result="shape"/>
</filter>
<filter id="filter1_d_2063_3111" x="9.99634" y="8.17065" width="83.0806" height="83.0806" filterUnits="userSpaceOnUse" color-interpolation-filters="sRGB">
<feFlood flood-opacity="0" result="BackgroundImageFix"/>
<feColorMatrix in="SourceAlpha" type="matrix" values="0 0 0 0 0 0 0 0 0 0 0 0 0 0 0 0 0 0 127 0" result="hardAlpha"/>
<feOffset dy="2"/>
<feGaussianBlur stdDeviation="2"/>
<feComposite in2="hardAlpha" operator="out"/>
<feColorMatrix type="matrix" values="0 0 0 0 0 0 0 0 0 0 0 0 0 0 0 0 0 0 0.25 0"/>
<feBlend mode="normal" in2="BackgroundImageFix" result="effect1_dropShadow_2063_3111"/>
<feBlend mode="normal" in="SourceGraphic" in2="effect1_dropShadow_2063_3111" result="shape"/>
</filter>
<filter id="filter2_d_2063_3111" x="19.9536" y="36.9072" width="73.3928" height="34.6414" filterUnits="userSpaceOnUse" color-interpolation-filters="sRGB">
<feFlood flood-opacity="0" result="BackgroundImageFix"/>
<feColorMatrix in="SourceAlpha" type="matrix" values="0 0 0 0 0 0 0 0 0 0 0 0 0 0 0 0 0 0 127 0" result="hardAlpha"/>
<feOffset dy="4"/>
<feGaussianBlur stdDeviation="2"/>
<feComposite in2="hardAlpha" operator="out"/>
<feColorMatrix type="matrix" values="0 0 0 0 0 0 0 0 0 0 0 0 0 0 0 0 0 0 0.25 0"/>
<feBlend mode="normal" in2="BackgroundImageFix" result="effect1_dropShadow_2063_3111"/>
<feBlend mode="normal" in="SourceGraphic" in2="effect1_dropShadow_2063_3111" result="shape"/>
</filter>
</defs>
</svg>
