<svg width="17" height="22" viewBox="0 0 17 22" fill="none" xmlns="http://www.w3.org/2000/svg">
<path d="M0.762082 11.0889L11.6006 21.0317C12.766 22.1365 14.9414 22.4032 16.0292 21.2603C17.1169 20.1936 16.845 18.1365 15.8349 17.0317L10.4351 10.9746L15.7572 5.10794C16.8061 3.96508 17.1558 1.79365 16.068 0.726982L16.0292 0.650792C14.9026 -0.45397 12.6494 -0.0349222 11.484 1.03174L0.762082 10.8984C0.746056 10.9088 0.732909 10.923 0.723815 10.9396C0.71472 10.9562 0.709961 10.9748 0.709961 10.9936C0.709961 11.0125 0.71472 11.0311 0.723815 11.0477C0.732909 11.0643 0.746056 11.0785 0.762082 11.0889Z" fill="#46C0EF"/>
</svg>
