<svg width="19" height="26" viewBox="0 0 19 26" fill="none" xmlns="http://www.w3.org/2000/svg">
<path d="M18.9382 12.8944L6.08575 1.1432C4.70377 -0.162487 2.12407 -0.477652 0.834219 0.873057C-0.455632 2.13372 -0.133168 4.565 1.06455 5.87068L7.46774 13.0294L1.15668 19.9631C-0.0871032 21.3138 -0.5017 23.8801 0.788151 25.1408L0.834217 25.2308C2.17013 26.5365 4.84197 26.0413 6.22395 24.7806L18.9382 13.1195C18.9572 13.1072 18.9728 13.0904 18.9836 13.0708C18.9944 13.0512 19 13.0292 19 13.0069C19 12.9846 18.9944 12.9627 18.9836 12.9431C18.9728 12.9234 18.9572 12.9067 18.9382 12.8944Z" fill="white"/>
</svg>
