<svg width="35" height="35" viewBox="0 0 35 35" fill="none" xmlns="http://www.w3.org/2000/svg">
<path d="M17.7101 33.8513C26.6627 33.8513 33.9202 26.5792 33.9202 17.6086C33.9202 8.63806 26.6627 1.36597 17.7101 1.36597C8.7575 1.36597 1.5 8.63806 1.5 17.6086C1.5 26.5792 8.7575 33.8513 17.7101 33.8513Z" fill="white" stroke="#3FC0EF" stroke-width="2" stroke-miterlimit="10"/>
<path d="M8.32025 20.566C9.7341 20.566 10.8803 19.4199 10.8803 18.006C10.8803 16.5922 9.7341 15.446 8.32025 15.446C6.90641 15.446 5.76025 16.5922 5.76025 18.006C5.76025 19.4199 6.90641 20.566 8.32025 20.566Z" fill="#46C0EF"/>
<path d="M17.2802 20.566C18.6941 20.566 19.8402 19.4199 19.8402 18.006C19.8402 16.5922 18.6941 15.446 17.2802 15.446C15.8664 15.446 14.7202 16.5922 14.7202 18.006C14.7202 19.4199 15.8664 20.566 17.2802 20.566Z" fill="#46C0EF"/>
<path d="M26.2402 20.566C27.654 20.566 28.8002 19.4199 28.8002 18.006C28.8002 16.5922 27.654 15.446 26.2402 15.446C24.8263 15.446 23.6802 16.5922 23.6802 18.006C23.6802 19.4199 24.8263 20.566 26.2402 20.566Z" fill="#46C0EF"/>
</svg>
