<svg width="23" height="22" viewBox="0 0 23 22" fill="none" xmlns="http://www.w3.org/2000/svg">
<path d="M6.76306 11.0889L17.6015 21.0317C18.767 22.1365 20.9424 22.4032 22.0302 21.2603C23.1179 20.1937 22.846 18.1365 21.8359 17.0317L16.4361 10.9746L21.7582 5.10794C22.8071 3.96508 23.1567 1.79365 22.069 0.726983L22.0302 0.650792C20.9036 -0.45397 18.6504 -0.0349223 17.485 1.03174L6.76306 10.8984C6.74703 10.9088 6.73389 10.923 6.72479 10.9396C6.7157 10.9562 6.71094 10.9748 6.71094 10.9936C6.71094 11.0125 6.7157 11.0311 6.72479 11.0477C6.73389 11.0643 6.74703 11.0785 6.76306 11.0889Z" fill="#46C0EF"/>
<path d="M15.9713 11.0889L5.13284 21.0317C3.96742 22.1365 1.79195 22.4032 0.704222 21.2603C-0.38351 20.1936 -0.111577 18.1365 0.89846 17.0317L6.29827 10.9746L0.976154 5.10794C-0.07273 3.96508 -0.422358 1.79365 0.665374 0.726982L0.704222 0.650792C1.8308 -0.45397 4.08396 -0.0349222 5.24939 1.03174L15.9713 10.8984C15.9873 10.9088 16.0005 10.923 16.0096 10.9396C16.0187 10.9562 16.0234 10.9748 16.0234 10.9936C16.0234 11.0125 16.0187 11.0311 16.0096 11.0477C16.0005 11.0643 15.9873 11.0785 15.9713 11.0889Z" fill="#46C0EF"/>
</svg>
