<svg width="33" height="34" viewBox="0 0 33 34" fill="none" xmlns="http://www.w3.org/2000/svg">
<path d="M16.5002 32.1349C24.7721 32.1349 31.4779 25.4292 31.4779 17.1572C31.4779 8.88525 24.7721 2.1795 16.5002 2.1795C8.22821 2.1795 1.52246 8.88525 1.52246 17.1572C1.52246 25.4292 8.22821 32.1349 16.5002 32.1349Z" fill="white" stroke="#42C1F0" stroke-width="3" stroke-miterlimit="10"/>
<path d="M18.5 9C18.5 8.17157 17.8284 7.5 17 7.5C16.1716 7.5 15.5 8.17157 15.5 9L18.5 9ZM15.9393 26.0607C16.5251 26.6464 17.4749 26.6464 18.0607 26.0607L27.6066 16.5147C28.1924 15.9289 28.1924 14.9792 27.6066 14.3934C27.0208 13.8076 26.0711 13.8076 25.4853 14.3934L17 22.8787L8.51472 14.3934C7.92893 13.8076 6.97918 13.8076 6.3934 14.3934C5.80761 14.9792 5.80761 15.9289 6.3934 16.5147L15.9393 26.0607ZM15.5 9L15.5 25L18.5 25L18.5 9L15.5 9Z" fill="#42C1F0"/>
</svg>
