<svg width="33" height="33" viewBox="0 0 33 33" fill="none" xmlns="http://www.w3.org/2000/svg">
<path d="M16.5021 31.4798C24.7741 31.4798 31.4798 24.7741 31.4798 16.5021C31.4798 8.23016 24.7741 1.52441 16.5021 1.52441C8.23016 1.52441 1.52441 8.23016 1.52441 16.5021C1.52441 24.7741 8.23016 31.4798 16.5021 31.4798Z" fill="white" stroke="#42C1F0" stroke-width="3" stroke-miterlimit="10"/>
<path d="M17.0089 14.658H15.0702C14.8425 14.658 14.658 14.8743 14.658 15.1411V25.2274C14.658 25.4943 14.8425 25.7106 15.0702 25.7106H17.0089C17.2366 25.7106 17.4211 25.4943 17.4211 25.2274V15.1411C17.4211 14.8743 17.2366 14.658 17.0089 14.658Z" fill="#42C1F0"/>
<path d="M17.6916 7.28955H14.3873C14.028 7.28955 13.7368 7.5996 13.7368 7.98207V11.2023C13.7368 11.5848 14.028 11.8948 14.3873 11.8948H17.6916C18.0509 11.8948 18.3421 11.5848 18.3421 11.2023V7.98207C18.3421 7.5996 18.0509 7.28955 17.6916 7.28955Z" fill="#42C1F0"/>
</svg>
