<svg width="46" height="39" viewBox="0 0 46 39" fill="none" xmlns="http://www.w3.org/2000/svg">
<g clip-path="url(#clip0_145_14283)">
<path d="M6.53223 20.7437C6.53223 21.1881 8.50791 21.301 9.51506 21.3293C9.83607 21.338 10.0909 21.5976 10.0909 21.9137V31.7778C10.0909 32.1015 10.3567 32.3633 10.6855 32.3633H35.7428C36.0715 32.3633 36.3374 32.1015 36.3374 31.7778V21.9246C36.3374 21.6041 36.5977 21.3434 36.922 21.3391C37.9126 21.326 39.8133 21.2369 39.8133 20.7426C39.8133 20.1191 39.8133 36.3046 39.8133 38.4361C39.8133 38.5849 39.7559 38.7272 39.6522 38.8358L39.6257 38.863C39.5132 38.9814 39.3566 39.0477 39.1922 39.0477H7.17535C6.97789 39.0477 6.79367 38.951 6.68336 38.7902C6.61717 38.6935 6.58187 38.5805 6.58076 38.4643C6.57635 36.5697 6.53333 20.1799 6.53333 20.7416L6.53223 20.7437Z" fill="#979696"/>
<path d="M12.4804 0.0541992L3.74256 15.5944C3.74256 15.5944 3.27705 19.0447 8.12304 20.0333C10.7738 20.2831 12.1163 18.3592 12.1163 18.3592C12.1163 18.3592 13.4081 20.0452 15.7268 20.0756C18.0456 20.1061 19.4984 18.3592 19.4984 18.3592C19.4984 18.3592 20.6787 19.9855 23.0559 20.0756C25.4332 20.1658 26.8804 18.3592 26.8804 18.3592C26.8804 18.3592 28.5561 20.2006 30.6079 20.0756C32.6597 19.9507 34.1412 18.3592 34.1412 18.3592C34.1412 18.3592 35.4175 20.1354 38.3043 20.0756C42.612 19.4021 42.7091 15.5944 42.7091 15.5944L33.4639 0.0541992H12.4793" fill="#979696"/>
<path d="M31.4478 33.4717H14.8977C14.1209 33.4717 13.4912 34.0918 13.4912 34.8568V36.3766C13.4912 37.1415 14.1209 37.7617 14.8977 37.7617H31.4478C32.2245 37.7617 32.8542 37.1415 32.8542 36.3766V34.8568C32.8542 34.0918 32.2245 33.4717 31.4478 33.4717Z" fill="#42BFEE"/>
<path d="M27.5098 0.566895C26.2688 0.566895 25.2947 1.61523 25.405 2.83194L26.6471 16.596C26.6868 17.0392 26.8688 17.4586 27.1689 17.7899C27.7039 18.3831 28.6879 19.2293 30.0591 19.4173C30.2267 19.4401 30.3966 19.4433 30.5643 19.426C31.7071 19.3065 32.551 18.7741 33.1169 18.2592C33.6982 17.7291 33.9167 16.9154 33.696 16.1647L29.5406 2.06823C29.2781 1.17851 28.4507 0.566895 27.5109 0.566895H27.5098Z" fill="#42BFEE"/>
<path d="M18.789 0.566895C20.03 0.566895 21.004 1.61523 20.8937 2.83194L19.6516 16.596C19.6119 17.0392 19.4299 17.4586 19.1298 17.7899C18.5948 18.3831 17.6108 19.2293 16.2397 19.4173C16.072 19.4401 15.9021 19.4433 15.7344 19.426C14.5916 19.3065 13.7477 18.7741 13.1818 18.2592C12.6159 17.7443 12.3821 16.9154 12.6027 16.1647L16.7581 2.06823C17.0207 1.17851 17.848 0.566895 18.7879 0.566895H18.789Z" fill="#42BFEE"/>
</g>
<defs>
<clipPath id="clip0_145_14283">
<rect width="46" height="39" fill="white"/>
</clipPath>
</defs>
</svg>
