<svg width="18" height="18" viewBox="0 0 18 18" fill="none" xmlns="http://www.w3.org/2000/svg">
<g clip-path="url(#clip0_145_10404)">
<path d="M0.958319 13.6602C1.2699 12.9548 1.72305 12.3217 2.28006 11.7901L13.3775 1.1935C14.3726 0.243285 15.9465 0.282703 16.8932 1.28167L17.0799 1.47877C18.0266 2.47774 17.9873 4.05763 16.9921 5.00785L6.10269 15.4055C5.54361 15.9392 4.87989 16.3505 4.15262 16.6094C2.61748 17.1555 1.08466 17.5845 0.584221 17.0565C0.1383 16.5858 0.318373 15.1093 0.958319 13.6602Z" fill="#767879"/>
<path d="M0.584156 17.3738C0.752525 17.3738 0.889016 17.2367 0.889016 17.0677C0.889016 16.8987 0.752525 16.7617 0.584156 16.7617C0.415787 16.7617 0.279297 16.8987 0.279297 17.0677C0.279297 17.2367 0.415787 17.3738 0.584156 17.3738Z" fill="#767879"/>
<path d="M1.56183 13.0605C1.56183 13.0605 1.82845 14.0751 2.62496 14.9091C3.42121 15.7431 4.8494 15.9991 4.8494 15.9991C4.8494 15.9991 1.91759 17.6368 0.981565 16.6975C-0.0407466 15.6713 1.56183 13.0608 1.56183 13.0608V13.0605Z" fill="white"/>
<path d="M15.876 5.62784L12.7607 2.34517C12.5855 2.16047 12.2942 2.15338 12.1102 2.32932L11.9157 2.51536C11.7317 2.6913 11.7246 2.98367 11.8999 3.16836L15.0152 6.45104C15.1904 6.63573 15.4817 6.64283 15.6657 6.46688L15.8602 6.28085C16.0442 6.1049 16.0513 5.81254 15.876 5.62784Z" fill="white"/>
</g>
<defs>
<clipPath id="clip0_145_10404">
<rect width="18" height="18" fill="white"/>
</clipPath>
</defs>
</svg>
