<svg width="38" height="38" viewBox="0 0 38 38" fill="none" xmlns="http://www.w3.org/2000/svg">
<circle cx="19" cy="19" r="17" stroke="white" stroke-width="4"/>
<path d="M19 24C22.866 24 26 20.866 26 17C26 13.134 22.866 10 19 10C15.134 10 12 13.134 12 17C12 20.866 15.134 24 19 24Z" stroke="white" stroke-width="3" stroke-miterlimit="10"/>
<path d="M8.59806 32C10.581 28.9375 14.0226 26.2898 18.5113 26.2898H18.5126C22.9751 26.2904 26.4134 28.9274 28.4036 31.9767C29.3554 31.3003 30.226 30.529 31 29.6776C30.4962 28.9659 29.9362 28.2877 29.329 27.6611C27.9608 26.2494 26.4017 25.1337 24.6944 24.3449C22.7637 23.4528 20.6838 23.0003 18.5129 23H18.5113C16.3338 23 14.2481 23.4549 12.3121 24.3523C10.6003 25.1456 9.03792 26.2678 7.66873 27.6877C7.0618 28.317 6.50251 28.9971 6 29.7109C6.77498 30.5587 7.64622 31.3269 8.59838 32H8.59806Z" fill="white"/>
</svg>
