<svg width="38" height="38" viewBox="0 0 38 38" fill="none" xmlns="http://www.w3.org/2000/svg">
<circle cx="19" cy="19" r="17" stroke="white" stroke-width="4"/>
<path d="M11.5792 21L26.4208 21C27.293 21 28 20.1046 28 19C28 17.8954 27.293 17 26.4208 17L11.5792 17C10.707 17 10 17.8954 10 19C10 20.1046 10.707 21 11.5792 21Z" fill="white"/>
<path d="M21 26.4208V11.5792C21 10.707 20.1046 10 19 10C17.8954 10 17 10.707 17 11.5792V26.4208C17 27.293 17.8954 28 19 28C20.1046 28 21 27.293 21 26.4208Z" fill="white"/>
</svg>
